<?xml version="1.0" standalone="no"?>
<!DOCTYPE svg PUBLIC "-//W3C//DTD SVG 20010904//EN"
 "http://www.w3.org/TR/2001/REC-SVG-20010904/DTD/svg10.dtd">
<svg version="1.0" xmlns="http://www.w3.org/2000/svg"
 width="456.000000pt" height="456.000000pt" viewBox="0 0 456.000000 456.000000"
 preserveAspectRatio="xMidYMid meet">
<metadata>
Created by potrace 1.11, written by Peter Selinger 2001-2013
</metadata>
<g transform="translate(0.000000,456.000000) scale(0.100000,-0.100000)"
fill="#000000" stroke="none">
<path d="M1400 3320 l0 -800 480 0 480 0 0 -80 0 -80 -240 0 -240 0 0 -160 0
-160 -320 0 -320 0 0 -80 0 -80 400 0 400 0 0 -639 c0 -502 -3 -640 -12 -643
-7 -2 -43 -3 -79 -2 l-65 1 1 -78 c1 -89 5 -86 -96 -84 l-66 1 1 -77 0 -76 71
2 c38 1 76 -3 83 -8 8 -6 12 -6 12 1 0 6 -6 13 -12 15 -10 4 -10 6 -1 6 7 1
10 8 6 16 -5 13 -8 13 -20 -5 -12 -17 -18 -19 -29 -9 -8 6 -14 7 -14 2 0 -5
-9 -9 -20 -9 -11 0 -20 4 -20 9 0 5 -6 5 -13 -1 -8 -7 -18 -7 -27 -2 -12 8
-12 10 -1 10 11 0 11 3 0 17 -12 16 -11 16 8 0 11 -10 24 -14 27 -9 3 5 -5 15
-18 22 -15 8 -23 20 -22 35 0 13 4 21 7 19 4 -2 13 4 20 13 12 14 11 15 -11 8
-14 -4 -22 -4 -18 0 10 11 69 14 62 4 -7 -11 60 -6 68 6 5 7 14 6 27 -2 17
-11 20 -10 18 7 -1 11 -6 20 -12 20 -5 0 -3 4 5 9 8 6 18 7 22 5 19 -12 6 16
-14 30 -12 9 -18 16 -12 16 5 0 10 9 11 20 1 11 -1 18 -5 16 -4 -3 -8 4 -8 15
0 10 3 19 6 20 19 4 73 5 62 2 -6 -3 -9 -9 -6 -14 3 -6 12 -5 21 3 23 18 60
17 58 -2 -1 -15 -7 -20 -26 -20 -6 0 -8 7 -5 16 4 9 1 14 -6 12 -6 -2 -13 -14
-14 -26 -3 -15 0 -20 11 -16 9 4 18 -1 21 -11 5 -13 9 -14 15 -3 5 8 7 3 5
-15 -1 -15 -6 -30 -9 -34 -12 -11 -8 -25 5 -17 7 5 8 3 3 -6 -4 -7 -2 -16 6
-21 17 -11 32 -12 25 -1 -2 4 13 7 34 7 21 0 36 -3 34 -7 -7 -11 8 -10 26 2
10 6 21 4 34 -8 18 -16 19 -16 13 0 -3 10 -2 20 3 23 6 4 10 11 10 16 0 6 -3
8 -8 5 -4 -2 -7 13 -7 34 0 21 4 36 9 33 5 -4 7 1 3 10 -3 10 -4 24 -1 32 5
13 9 13 22 3 9 -7 13 -8 10 -3 -4 6 12 10 38 11 25 0 40 -2 33 -6 -7 -5 -7
-10 -1 -14 5 -3 15 0 21 7 14 17 103 16 124 -1 9 -8 18 -9 21 -3 3 5 1 11 -5
13 -6 2 31 4 81 4 50 0 87 -2 81 -4 -6 -2 -8 -8 -5 -13 3 -6 12 -5 21 3 9 7
39 13 67 14 28 0 45 -1 38 -4 -6 -2 -9 -8 -6 -13 3 -6 12 -5 21 3 9 7 27 13
39 13 22 1 23 0 9 -22 -20 -30 -19 -38 3 -22 14 11 15 11 5 -1 -14 -15 -18
-34 -5 -26 4 2 7 -10 7 -28 0 -21 -4 -32 -11 -29 -7 2 -11 -6 -10 -19 1 -13
-2 -29 -7 -35 -10 -14 4 -18 17 -5 4 4 13 7 18 7 6 0 13 6 16 13 2 7 -2 10
-12 6 -9 -3 -16 -2 -16 3 0 5 24 9 54 8 30 0 52 -3 50 -7 -6 -10 10 -10 20 -1
3 4 16 8 28 10 12 2 19 1 16 -3 -3 -3 -14 -7 -24 -8 -10 -2 -20 -8 -22 -14 -2
-7 5 -9 20 -6 13 3 28 6 34 6 6 1 11 14 11 29 0 16 -3 26 -6 24 -4 -2 -6 14
-6 35 0 21 4 36 9 33 5 -4 7 1 3 10 -3 10 -4 24 -1 32 5 13 9 13 22 3 9 -7 13
-8 10 -3 -3 6 5 11 18 11 13 1 24 -3 24 -9 0 -7 4 -7 12 1 17 17 35 15 42 -4
3 -8 2 -13 -3 -10 -5 3 -15 -2 -22 -11 -12 -14 -11 -15 11 -9 l25 7 -24 -14
c-20 -12 -21 -15 -7 -20 10 -4 15 -3 11 3 -3 6 -2 10 3 10 5 0 8 -15 8 -34 -1
-25 -4 -32 -13 -25 -7 7 -13 6 -17 0 -4 -5 3 -12 14 -16 21 -7 28 -25 9 -25
-8 0 -8 -5 1 -15 7 -8 17 -12 22 -9 6 4 5 9 -2 14 -8 5 -3 7 13 7 14 -1 23 -5
21 -8 -2 -4 3 -9 11 -13 8 -3 17 -1 21 5 3 6 12 8 19 5 8 -3 16 0 19 7 3 8 5
8 5 -2 1 -11 4 -11 19 0 16 13 16 13 2 -5 -14 -18 -13 -19 5 -13 19 7 19 7 1
-8 -10 -8 -23 -12 -27 -9 -5 3 -9 1 -9 -4 0 -17 13 -21 33 -10 21 11 21 11 3
-16 -10 -15 -15 -30 -12 -33 3 -3 8 2 12 11 3 9 9 14 13 12 3 -3 6 17 6 43 l0
47 -70 -1 c-38 -1 -74 2 -80 6 -5 4 -9 41 -9 82 l2 75 -67 -2 c-36 -1 -71 -5
-78 -9 -10 -6 -13 133 -13 643 l0 650 80 0 80 0 0 -320 0 -320 80 0 80 0 0
480 0 480 -80 0 -80 0 0 80 0 80 -240 0 -240 0 0 80 0 80 240 0 240 0 0 240 0
240 80 0 80 0 0 160 0 160 -80 0 -80 0 0 400 0 400 -880 0 -880 0 0 -800z
m1440 -2480 c0 -132 -3 -240 -7 -241 -5 -1 -143 -2 -308 -2 -165 -1 -305 -5
-312 -10 -9 -6 -12 52 -13 243 l-1 250 321 0 320 0 0 -240z"/>
<path d="M1910 566 c0 -8 5 -18 12 -22 8 -5 9 -2 4 11 -7 18 -6 18 14 0 12
-11 24 -15 28 -9 4 5 6 8 3 7 -2 -1 -13 4 -25 12 -26 19 -36 19 -36 1z"/>
<path d="M2261 571 c-8 -5 -21 -7 -29 -3 -12 4 -14 1 -9 -12 4 -10 2 -26 -4
-37 -8 -16 -7 -26 5 -44 11 -17 12 -25 4 -27 -13 -5 -20 -85 -9 -105 4 -8 11
-9 21 -3 10 7 11 10 3 10 -7 0 -13 4 -13 10 0 5 5 9 11 7 6 -1 13 3 16 9 2 7
-4 11 -14 10 -10 0 -18 6 -18 14 0 8 6 14 14 12 9 -2 11 3 7 13 -3 9 -2 14 2
11 5 -3 9 8 9 24 0 25 -3 28 -16 18 -13 -10 -14 -10 -3 2 18 21 15 34 -5 19
-16 -12 -16 -12 -6 1 6 8 12 20 13 25 1 6 9 8 18 7 14 -3 14 -1 2 15 -12 15
-12 16 0 6 20 -18 35 -16 20 2 -9 10 -9 15 -1 15 6 0 11 -5 11 -12 0 -6 3 -8
7 -5 3 4 13 -3 21 -14 12 -17 12 -23 2 -29 -16 -10 -42 -1 -34 11 3 5 1 9 -4
9 -6 0 -13 -7 -16 -16 -8 -22 -8 -26 3 -19 6 3 19 -4 30 -16 17 -19 23 -20 36
-9 8 7 13 15 10 18 -2 3 -11 -1 -20 -8 -9 -8 -15 -8 -15 -2 0 6 8 13 19 17 27
8 21 36 -13 63 -33 25 -35 25 -55 13z"/>
<path d="M2341 567 c-8 -11 -5 -16 15 -26 20 -9 25 -9 21 1 -2 7 -10 12 -16
10 -7 -1 -10 2 -6 8 3 6 11 7 17 4 7 -4 8 -2 4 4 -9 16 -21 15 -35 -1z"/>
<path d="M2387 566 c-6 -14 0 -26 13 -26 3 0 6 9 7 20 2 23 -12 27 -20 6z"/>
<path d="M2423 569 c-15 -15 -5 -39 13 -32 8 3 11 9 8 14 -3 5 -10 6 -16 3 -7
-5 -8 -2 -3 5 5 9 10 10 18 2 17 -17 31 -13 17 4 -15 18 -22 19 -37 4z"/>
<path d="M2479 554 c-18 -13 -37 -25 -43 -27 -6 -2 -7 -8 -3 -13 4 -5 13 -2
18 6 9 13 10 12 5 -2 -3 -11 2 -19 15 -23 10 -4 19 -11 19 -17 0 -6 -6 -6 -15
2 -9 7 -18 11 -20 8 -3 -3 2 -11 10 -18 13 -11 19 -10 36 9 11 12 25 18 31 15
8 -5 9 -1 5 10 -4 10 -7 20 -7 22 0 2 -5 4 -11 4 -5 0 -8 -4 -5 -9 8 -12 -18
-21 -34 -11 -10 6 -10 12 2 29 8 11 18 18 21 14 4 -3 7 -1 7 5 0 7 5 12 11 12
8 0 8 -5 -1 -15 -17 -20 -1 -19 22 2 17 15 19 15 36 0 23 -21 39 -22 22 -2 -9
10 -9 15 -1 15 6 0 11 -5 11 -12 0 -6 3 -8 7 -5 3 4 13 -3 21 -14 12 -17 12
-23 2 -29 -16 -10 -42 -1 -34 11 3 5 1 9 -4 9 -6 0 -13 -7 -16 -16 -8 -22 -8
-26 3 -19 6 3 19 -4 30 -16 17 -19 23 -20 36 -9 8 7 13 15 10 18 -2 3 -11 -1
-20 -8 -9 -8 -15 -8 -15 -2 0 6 8 13 19 17 10 3 18 13 17 23 -4 55 -129 79
-187 36z"/>
<path d="M2661 567 c-8 -11 -5 -16 15 -26 20 -9 25 -9 21 1 -2 7 -10 12 -16
10 -7 -1 -10 2 -6 8 3 6 11 7 17 4 7 -4 8 -2 4 4 -9 16 -21 15 -35 -1z"/>
<path d="M2707 566 c-6 -15 1 -26 14 -26 5 0 7 6 5 13 -1 6 -1 9 1 4 3 -4 9
-5 14 -2 5 4 6 -1 2 -10 -5 -16 -4 -16 28 -1 19 10 27 11 19 4 -27 -23 -21
-53 11 -50 3 1 6 -6 6 -13 0 -11 -4 -12 -14 -3 -7 6 -16 9 -18 6 -3 -3 2 -11
11 -19 14 -11 18 -11 30 6 8 10 10 21 6 24 -16 11 -22 44 -12 56 17 20 -8 30
-28 12 -15 -13 -20 -14 -36 -1 -25 18 -32 18 -39 0z"/>
<path d="M3061 570 c-8 -4 -21 -6 -29 -2 -12 4 -14 1 -9 -12 4 -10 2 -26 -4
-37 -8 -16 -7 -26 6 -46 9 -13 19 -22 23 -18 4 3 0 11 -8 16 -12 9 -12 10 3 5
9 -3 17 -1 17 4 0 10 -15 14 -34 11 -5 -1 -4 4 2 12 7 8 8 18 4 23 -4 4 1 2
11 -5 9 -7 17 -10 17 -6 0 5 -8 18 -17 29 l-18 21 24 -20 c21 -17 23 -18 18
-3 -3 10 -1 20 5 24 7 5 8 2 3 -6 -6 -9 -4 -11 5 -5 9 6 11 4 5 -4 -6 -10 -3
-11 13 -2 24 13 38 31 23 31 -5 0 -13 -5 -16 -10 -5 -7 -11 -8 -19 -1 -7 6
-18 6 -25 1z"/>
<path d="M2540 545 c-7 -8 -8 -15 -3 -15 6 0 9 -21 8 -48 -2 -40 1 -48 15 -48
14 0 17 8 15 48 -1 27 2 48 8 48 5 0 4 7 -3 15 -7 8 -16 15 -20 15 -4 0 -13
-7 -20 -15z"/>
<path d="M1920 529 c-13 -9 -12 -10 3 -5 12 4 16 2 11 -5 -4 -8 1 -9 17 -4 17
4 20 3 10 -3 -11 -8 -11 -10 0 -14 8 -3 19 2 25 10 9 12 13 12 19 2 6 -9 4
-11 -5 -5 -10 6 -12 4 -7 -8 3 -9 2 -19 -3 -22 -6 -4 -10 -11 -10 -16 0 -5 11
-2 24 7 21 13 23 19 14 39 -6 13 -18 23 -27 23 -9 -1 -25 1 -36 5 -11 4 -27 2
-35 -4z"/>
<path d="M2296 525 c4 -8 10 -12 15 -9 11 6 2 24 -11 24 -5 0 -7 -7 -4 -15z"/>
<path d="M2485 531 c-3 -5 -1 -12 4 -15 5 -3 11 1 15 9 6 16 -9 21 -19 6z"/>
<path d="M2616 525 c4 -8 10 -12 15 -9 11 6 2 24 -11 24 -5 0 -7 -7 -4 -15z"/>
<path d="M3075 524 c-9 -9 -14 -23 -11 -31 9 -21 -12 -53 -29 -47 -11 5 -14 0
-13 -16 2 -16 -3 -24 -17 -27 -11 -2 -27 -5 -35 -7 -8 -2 -23 3 -32 12 -25 21
-63 23 -75 3 -6 -10 -8 -22 -5 -27 10 -13 32 -16 32 -4 0 6 -4 10 -10 10 -5 0
-10 5 -10 12 0 6 3 8 7 5 3 -4 12 -2 20 5 11 9 13 8 11 -2 -2 -7 3 -15 11 -18
9 -3 11 0 6 8 -5 9 -4 11 4 6 15 -10 3 -29 -14 -22 -9 3 -13 -2 -12 -15 1 -10
4 -19 8 -19 4 0 16 -3 26 -6 16 -5 16 -4 -1 10 -19 15 -12 22 17 17 4 0 7 5 7
12 0 8 4 7 10 -3 8 -12 10 -12 10 -1 0 8 3 11 6 8 4 -4 1 -14 -7 -23 -12 -15
-11 -16 11 -10 19 6 21 5 10 -3 -11 -8 -11 -11 -2 -11 7 0 12 -7 10 -16 -2
-10 2 -19 8 -21 14 -5 13 55 -1 65 -13 9 -18 35 -6 28 5 -4 12 -2 16 3 3 6 13
7 22 4 11 -4 14 -2 9 5 -4 6 -2 21 4 32 11 21 30 27 30 9 0 -5 -4 -7 -10 -4
-5 3 -10 2 -10 -3 0 -8 22 -22 34 -22 2 0 3 10 3 23 1 43 3 49 17 44 10 -4 13
-1 9 8 -3 8 -9 12 -14 9 -8 -5 -13 9 -10 29 2 13 -17 8 -34 -9z m18 -17 c3 -8
1 -20 -5 -28 -8 -11 -9 -10 -4 4 3 9 1 17 -5 17 -6 0 -7 5 -4 10 8 13 12 13
18 -3z"/>
<path d="M2350 520 c0 -5 5 -10 10 -10 6 0 10 5 10 10 0 6 -4 10 -10 10 -5 0
-10 -4 -10 -10z"/>
<path d="M2368 509 c-10 -10 -15 -19 -11 -19 3 0 -2 -9 -12 -20 -23 -25 -30
-25 -53 1 -17 18 -20 18 -26 4 -3 -9 -4 -21 -1 -26 8 -12 -14 -51 -26 -44 -5
4 -9 2 -9 -3 0 -6 17 -9 38 -9 33 2 37 5 36 29 0 22 3 25 17 17 14 -7 19 -4
24 11 4 11 10 18 15 15 4 -3 11 6 14 20 4 16 13 25 26 25 13 0 22 -9 26 -25 3
-14 10 -23 14 -20 5 3 11 -4 15 -15 5 -15 10 -18 24 -11 14 8 17 6 16 -7 0
-10 -4 -23 -9 -30 -8 -13 6 -17 18 -4 4 4 13 7 19 7 12 0 18 48 9 73 -3 9 -10
7 -24 -7 -23 -26 -30 -26 -53 -1 -10 11 -15 20 -12 20 4 0 -2 9 -13 20 -24 24
-40 24 -62 -1z m-83 -49 c3 -5 1 -10 -4 -10 -6 0 -11 5 -11 10 0 6 2 10 4 10
3 0 8 -4 11 -10z m245 0 c0 -5 -5 -10 -11 -10 -5 0 -7 5 -4 10 3 6 8 10 11 10
2 0 4 -4 4 -10z m-240 -30 c0 -5 -5 -10 -11 -10 -5 0 -7 5 -4 10 3 6 8 10 11
10 2 0 4 -4 4 -10z m235 0 c3 -5 1 -10 -4 -10 -6 0 -11 5 -11 10 0 6 2 10 4
10 3 0 8 -4 11 -10z"/>
<path d="M2670 520 c0 -5 5 -10 10 -10 6 0 10 5 10 10 0 6 -4 10 -10 10 -5 0
-10 -4 -10 -10z"/>
<path d="M2688 509 c-10 -10 -15 -19 -11 -19 3 0 -2 -9 -12 -20 -23 -25 -30
-25 -55 2 -11 12 -21 18 -21 12 -1 -5 -2 -28 -3 -52 -2 -38 0 -43 18 -40 16 2
21 10 20 30 0 22 3 25 17 17 14 -7 19 -4 24 11 4 11 10 18 15 15 4 -3 11 6 14
20 4 16 13 25 26 25 11 0 20 5 20 10 0 17 -34 10 -52 -11z m-83 -49 c3 -5 1
-10 -4 -10 -6 0 -11 5 -11 10 0 6 2 10 4 10 3 0 8 -4 11 -10z m5 -30 c0 -5 -5
-10 -11 -10 -5 0 -7 5 -4 10 3 6 8 10 11 10 2 0 4 -4 4 -10z"/>
<path d="M2747 516 c-7 -19 3 -57 13 -51 5 3 11 -4 15 -14 4 -12 12 -18 21
-14 11 4 8 10 -11 25 -14 11 -23 23 -20 28 3 5 -1 11 -7 13 -10 4 -10 6 0 6 6
1 12 6 12 11 0 15 -17 12 -23 -4z"/>
<path d="M1925 490 c20 -22 30 -27 19 -8 -4 7 -3 8 5 4 6 -4 9 -12 6 -17 -11
-17 12 -9 26 9 7 9 10 14 5 10 -5 -4 -21 -1 -37 7 -38 20 -45 19 -24 -5z"/>
<path d="M2384 489 c-10 -17 13 -36 27 -22 12 12 4 33 -11 33 -5 0 -12 -5 -16
-11z"/>
<path d="M2704 489 c-10 -17 13 -36 27 -22 12 12 4 33 -11 33 -5 0 -12 -5 -16
-11z"/>
<path d="M1915 438 c6 -29 -4 -41 -21 -27 -10 8 -18 9 -27 0 -8 -6 -16 -8 -19
-5 -3 2 -8 -1 -11 -9 -4 -10 3 -14 24 -14 25 0 27 3 16 16 -11 14 -10 14 6 2
14 -11 20 -11 32 -1 8 7 15 9 15 5 0 -4 7 -2 15 5 8 6 20 8 26 4 8 -5 10 -2 7
8 -4 8 -1 15 7 15 8 0 11 -7 7 -16 -5 -14 -4 -14 14 -1 18 14 18 14 5 -3 -13
-16 -12 -18 13 -13 14 3 24 1 21 -4 -3 -5 3 -14 14 -19 29 -16 38 -13 15 4
-10 8 -16 15 -11 16 4 1 10 2 15 3 4 1 14 5 22 11 12 7 13 6 3 -6 -10 -12 -11
-30 -4 -57 1 -1 7 3 15 10 9 8 10 15 4 19 -14 9 0 31 15 23 7 -3 3 2 -8 10
-11 9 -26 14 -35 10 -37 -16 -58 -12 -69 13 -9 19 -15 22 -25 14 -7 -6 -15 -8
-18 -6 -3 3 -19 7 -36 9 -26 4 -30 2 -27 -16z m34 -9 c-15 -9 -32 -2 -24 11 3
5 13 6 21 3 12 -4 13 -8 3 -14z"/>
<path d="M2355 443 c-17 -17 -18 -23 -6 -42 5 -8 16 -11 26 -8 9 4 14 10 11
15 -2 4 0 14 5 22 8 13 10 13 18 0 11 -16 -26 -59 -45 -53 -6 2 -17 -3 -24
-12 -15 -18 0 -21 18 -3 8 8 12 8 12 1 0 -6 14 2 31 18 17 16 35 27 41 26 14
-3 20 15 9 32 -13 19 -78 23 -96 4z m20 -12 c-3 -6 -11 -11 -16 -11 -5 0 -4 6
3 14 14 16 24 13 13 -3z m70 -10 c-6 -5 -25 10 -25 20 0 5 6 4 14 -3 8 -7 12
-15 11 -17z"/>
<path d="M2675 443 c-17 -17 -18 -23 -6 -42 5 -8 16 -11 26 -8 9 4 14 10 11
15 -2 4 0 14 5 22 8 13 10 13 18 0 11 -16 -26 -59 -45 -53 -6 2 -17 -3 -24
-12 -15 -18 0 -21 18 -3 8 8 12 8 12 1 0 -6 14 2 31 18 17 16 35 27 41 26 14
-3 20 15 9 32 -13 19 -78 23 -96 4z m20 -12 c-3 -6 -11 -11 -16 -11 -5 0 -4 6
3 14 14 16 24 13 13 -3z m70 -10 c-6 -5 -25 10 -25 20 0 5 6 4 14 -3 8 -7 12
-15 11 -17z"/>
<path d="M3115 440 c-3 -5 -1 -10 4 -10 6 0 11 5 11 10 0 6 -2 10 -4 10 -3 0
-8 -4 -11 -10z"/>
<path d="M2174 405 c0 -14 4 -25 8 -25 4 0 5 -6 2 -13 -3 -8 2 -20 11 -27 17
-14 20 -30 5 -30 -5 0 -9 5 -7 11 1 6 -4 14 -12 17 -9 3 -11 0 -6 -8 5 -8 1
-18 -10 -27 -19 -13 -14 -14 58 -4 5 0 0 16 -11 35 -15 25 -17 36 -9 40 9 3 9
5 0 5 -7 1 -10 7 -7 14 3 8 -2 19 -10 26 -11 10 -14 7 -12 -14z"/>
<path d="M2316 421 c-4 -6 -2 -11 3 -11 6 0 3 -8 -6 -18 -10 -10 -23 -17 -29
-15 -6 2 -17 -3 -24 -12 -8 -9 -8 -15 -2 -15 6 0 14 5 18 11 4 8 9 7 15 -2 6
-10 9 -10 9 -2 0 7 6 10 13 7 8 -3 20 2 27 11 9 11 9 15 1 15 -7 0 -10 4 -7 8
2 4 1 14 -3 21 -6 9 -11 10 -15 2z"/>
<path d="M2464 412 c-12 -19 -7 -45 7 -37 5 4 6 0 3 -8 -3 -8 2 -14 11 -14 19
0 19 6 -2 29 -14 15 -15 21 -4 27 7 5 9 11 4 14 -5 3 -14 -2 -19 -11z"/>
<path d="M2544 413 c-12 -20 -7 -46 6 -38 5 3 7 12 3 20 -3 8 -1 15 5 15 11 0
10 -25 -1 -36 -14 -14 -7 -26 8 -14 8 7 13 22 11 34 -3 11 -5 24 -5 29 -2 13
-16 7 -27 -10z"/>
<path d="M2636 421 c-4 -6 -2 -11 3 -11 6 0 3 -8 -6 -18 -10 -11 -22 -17 -26
-14 -5 2 -19 -6 -32 -18 l-23 -22 -17 32 c-20 38 -41 28 -26 -12 7 -19 16 -25
35 -23 16 2 30 -3 36 -13 5 -10 10 -12 10 -4 0 6 5 12 10 12 6 0 9 -5 8 -11
-2 -6 2 -13 8 -16 7 -2 11 4 10 13 -2 25 21 28 34 4 9 -16 8 -25 -1 -36 -6 -8
-7 -14 -1 -14 22 0 34 28 22 52 -9 19 -9 21 2 7 12 -14 15 -14 31 2 18 17 15
17 -62 15 -66 -2 -77 0 -63 10 13 9 19 9 24 1 6 -9 8 -9 8 0 0 7 6 10 13 7 8
-3 20 2 27 11 9 11 9 15 1 15 -7 0 -10 4 -7 8 2 4 1 14 -3 21 -6 9 -11 10 -15
2z"/>
<path d="M2784 412 c-12 -19 -7 -45 7 -37 5 4 6 0 3 -8 -3 -8 2 -14 11 -14 19
0 19 6 -2 29 -14 15 -15 21 -4 27 7 5 9 11 4 14 -5 3 -14 -2 -19 -11z"/>
<path d="M3063 413 c1 -12 4 -20 8 -17 4 2 10 0 14 -6 3 -5 10 -10 16 -10 5 0
4 9 -3 19 -7 11 -15 18 -19 15 -4 -2 -9 2 -12 8 -3 7 -4 3 -4 -9z"/>
<path d="M2146 404 c-3 -9 -11 -12 -18 -8 -10 5 -10 4 -2 -5 11 -12 44 -5 44
9 0 17 -18 20 -24 4z"/>
<path d="M3105 410 c-6 -9 1 -14 18 -11 11 2 8 -17 -3 -21 -6 -2 -1 -9 9 -15
17 -11 20 -10 19 10 -2 37 -29 60 -43 37z"/>
<path d="M1756 388 c-12 -16 -13 -25 -4 -35 18 -22 34 2 17 24 -13 16 -12 17
4 4 11 -9 17 -10 17 -2 0 6 3 10 8 10 20 -3 32 2 26 12 -5 8 -9 8 -14 -1 -5
-9 -9 -9 -14 -1 -11 17 -23 13 -40 -11z"/>
<path d="M1947 403 c-8 -8 1 -23 14 -23 6 0 7 6 4 13 -4 6 -1 5 7 -4 7 -9 19
-14 25 -12 7 3 16 -3 19 -12 6 -13 9 -14 16 -3 7 9 8 7 4 -7 -5 -16 -1 -21 13
-22 19 -2 19 -1 2 30 -10 18 -24 32 -32 33 -8 0 -16 2 -19 3 -15 7 -48 10 -53
4z"/>
<path d="M3169 403 c-1 -5 -1 -11 0 -15 0 -5 -5 -8 -11 -8 -10 0 -9 -3 1 -9 9
-6 10 -11 2 -15 -6 -4 -11 -12 -11 -18 0 -6 6 -6 15 2 9 7 14 19 11 26 -7 17
25 28 36 12 6 -10 8 -10 8 1 0 8 3 11 6 8 4 -4 1 -13 -6 -22 -15 -18 1 -20 18
-3 8 8 12 9 12 1 0 -6 -6 -14 -12 -16 -10 -4 -10 -6 0 -6 6 -1 12 -8 12 -17 0
-8 4 -13 9 -9 5 3 13 0 17 -6 4 -7 3 -9 -4 -5 -5 3 -12 0 -15 -6 -3 -11 -9
-11 -26 0 -14 8 -21 8 -21 1 0 -5 -4 -7 -10 -4 -5 3 -10 2 -10 -3 0 -5 28 -9
63 -8 58 1 63 3 65 23 2 25 -8 29 -25 12 -8 -8 -14 -5 -23 11 -7 13 -8 20 -2
16 6 -3 14 -2 17 4 4 6 1 9 -5 8 -6 -2 -18 7 -27 19 -14 21 -14 22 7 18 13 -2
20 -1 16 2 -11 11 -39 13 -51 3 -6 -5 -17 -5 -25 0 -18 12 -30 13 -31 3z m134
-98 c-3 -9 -8 -14 -10 -11 -3 3 -2 9 2 15 9 16 15 13 8 -4z"/>
<path d="M1906 385 c-10 -8 -35 -12 -55 -10 -47 4 -63 -5 -66 -39 -3 -20 1
-26 15 -26 10 0 22 5 25 10 3 6 12 10 18 10 8 0 8 -3 -2 -9 -9 -6 -10 -11 -3
-15 6 -4 16 2 21 12 9 17 27 20 66 12 25 -6 28 2 5 15 -15 9 -19 14 -10 15 13
0 13 1 0 11 -13 9 -13 10 0 6 8 -2 14 -10 12 -17 -2 -7 5 -9 20 -5 16 4 19 3
9 -3 -11 -8 -11 -10 0 -14 8 -3 19 2 25 10 9 12 13 12 19 2 6 -9 4 -11 -5 -5
-10 6 -12 4 -7 -8 3 -9 2 -19 -3 -22 -6 -4 -10 -11 -10 -16 0 -5 11 -2 24 6
18 12 24 13 23 3 -1 -33 4 -44 22 -45 12 -1 18 5 17 15 -1 13 7 17 31 15 30
-1 31 0 20 18 -6 10 -13 15 -15 9 -2 -5 -11 -10 -20 -10 -15 0 -15 2 -2 10 11
7 6 8 -18 5 -27 -3 -35 1 -44 21 -6 13 -16 24 -22 23 -26 -3 -45 2 -58 15 -12
11 -17 11 -32 1z m-53 -35 c4 0 5 5 2 10 -3 6 -1 10 4 10 13 0 14 -10 2 -28
-6 -11 -11 -10 -25 3 -9 9 -16 19 -16 23 0 3 5 1 12 -6 7 -7 16 -12 21 -12z
m47 10 c0 -5 -5 -10 -11 -10 -5 0 -7 5 -4 10 3 6 8 10 11 10 2 0 4 -4 4 -10z
m-87 -15 c4 -8 1 -17 -5 -21 -7 -4 -8 -3 -4 4 4 7 2 12 -4 12 -6 0 -8 5 -5 10
8 14 12 13 18 -5z m240 -51 c-4 -12 -8 -13 -14 -3 -9 15 -2 32 11 24 5 -3 6
-13 3 -21z"/>
<path d="M2426 391 c-4 -5 -2 -20 3 -34 7 -18 16 -24 35 -22 14 2 24 -1 21 -5
-3 -5 -11 -7 -19 -4 -7 3 -13 -2 -13 -11 0 -18 27 -16 45 5 10 11 12 11 6 1
-5 -10 -3 -12 6 -6 9 5 11 4 6 -3 -10 -16 7 -15 23 1 10 10 11 9 6 -4 -4 -10
-1 -20 6 -25 7 -4 10 -3 5 4 -3 6 -3 13 2 16 4 2 9 -4 9 -15 1 -10 -2 -19 -8
-19 -5 0 -9 -5 -9 -10 0 -6 6 -9 13 -8 6 2 11 -5 11 -15 -1 -10 3 -16 10 -14
6 3 9 11 7 18 -1 8 -4 23 -6 34 -5 38 -16 52 -38 51 -12 -1 -31 4 -43 11 -11
7 -23 10 -27 7 -3 -3 -13 8 -22 25 -17 33 -21 36 -29 22z"/>
<path d="M2746 391 c-4 -5 -2 -20 3 -34 7 -18 16 -24 35 -22 14 2 24 -1 21 -5
-3 -5 -11 -7 -19 -4 -7 3 -13 -2 -13 -10 0 -20 32 -16 46 6 11 17 4 23 -21 19
-4 0 -15 13 -23 29 -17 32 -21 35 -29 21z"/>
<path d="M2826 391 c-11 -17 12 -61 28 -55 14 5 14 9 0 35 -16 31 -20 34 -28
20z"/>
<path d="M3025 390 c-4 -6 -2 -16 3 -23 5 -7 8 -22 7 -34 -1 -13 4 -23 10 -23
14 0 16 30 2 48 -6 8 -6 12 1 12 6 0 13 -6 15 -12 4 -10 6 -10 6 0 1 6 6 12
13 12 9 0 9 -3 0 -12 -17 -17 -15 -33 2 -19 11 9 20 10 35 1 23 -12 27 -25 11
-35 -12 -8 6 -35 22 -35 7 0 6 5 -1 13 -6 8 -8 16 -5 20 18 18 -34 74 -73 78
-5 1 -16 5 -25 10 -11 6 -19 5 -23 -1z"/>
<path d="M2130 362 c-19 -16 -21 -22 -11 -40 6 -12 15 -22 19 -22 15 0 36 19
29 27 -5 4 -12 2 -16 -6 -6 -10 -10 -9 -15 5 -4 11 0 24 10 33 9 9 14 11 10 4
-3 -6 -2 -14 4 -18 5 -3 10 3 10 14 0 26 -11 26 -40 3z"/>
<path d="M2396 371 c-3 -5 1 -11 9 -15 8 -3 15 -1 15 4 0 13 -18 22 -24 11z"/>
<path d="M2716 371 c-3 -5 1 -11 9 -15 8 -3 15 -1 15 4 0 13 -18 22 -24 11z"/>
<path d="M3190 367 c0 -8 -7 -20 -15 -27 -9 -7 -14 -19 -11 -26 3 -7 0 -14 -7
-17 -6 -2 -3 -6 7 -10 9 -4 15 -3 12 1 -2 4 9 15 25 24 16 9 28 12 26 6 -1 -6
4 -13 11 -15 19 -7 3 26 -19 38 -11 5 -17 14 -14 19 3 5 1 11 -5 15 -5 3 -10
0 -10 -8z m7 -42 c-15 -16 -19 -13 -11 9 3 9 10 13 15 10 5 -3 3 -11 -4 -19z"/>
<path d="M2060 361 c0 -6 9 -15 20 -21 13 -7 20 -7 20 -1 0 6 -9 15 -20 21
-13 7 -20 7 -20 1z"/>
<path d="M2870 358 c0 -4 6 -8 13 -8 6 -1 1 -7 -13 -14 -14 -8 -28 -12 -32
-10 -3 2 -9 0 -12 -5 -12 -19 16 -22 36 -4 11 10 23 17 27 15 3 -1 6 6 7 16 1
10 -5 19 -12 19 -8 0 -14 -4 -14 -9z"/>
<path d="M2950 355 c6 -7 4 -19 -6 -33 -18 -27 -12 -28 23 -4 19 12 25 13 19
3 -7 -10 -5 -12 4 -6 10 6 9 11 -6 22 -10 8 -18 18 -17 22 1 4 -5 8 -12 8 -10
0 -12 -4 -5 -12z"/>
<path d="M2253 337 c-23 -10 -31 -27 -13 -27 6 0 10 6 10 13 0 8 4 7 10 -3 6
-10 10 -11 10 -2 0 6 5 12 10 12 6 0 9 -5 8 -11 -2 -6 2 -13 8 -16 7 -2 11 4
10 13 -2 25 21 28 34 4 9 -16 8 -25 -1 -36 -6 -8 -7 -14 -1 -14 22 0 34 28 22
52 -11 22 -10 22 4 4 9 -11 16 -15 16 -9 0 15 26 24 28 10 3 -36 11 -49 36
-62 25 -13 27 -13 22 0 -3 8 0 17 6 21 7 5 8 2 3 -7 -7 -11 -6 -12 6 -2 9 8
20 9 29 3 13 -9 13 -10 0 -11 -8 -1 -19 -1 -24 0 -5 1 -6 -5 -2 -14 3 -9 6
-19 6 -21 0 -2 5 -4 10 -4 5 0 9 6 7 13 -1 6 5 12 13 12 10 0 14 -8 13 -23 -3
-20 -1 -21 17 -10 22 14 27 29 8 25 -7 -1 -13 6 -13 17 0 21 -34 37 -66 31
-26 -5 -59 11 -58 28 0 9 2 9 6 0 2 -7 10 -13 16 -13 6 0 3 8 -6 17 -20 21
-146 27 -184 10z"/>
<path d="M2711 314 c-12 -15 -21 -30 -21 -34 0 -11 -30 -21 -41 -14 -6 4 -6
11 1 19 6 7 8 20 4 29 -7 18 -24 22 -24 6 0 -5 5 -10 10 -10 6 0 10 -5 10 -11
0 -5 -4 -7 -10 -4 -5 3 -10 -3 -10 -14 0 -10 6 -22 13 -24 9 -4 9 -6 -1 -6 -7
-1 -10 -6 -7 -12 5 -7 14 -4 26 7 22 20 38 12 19 -11 -10 -12 -10 -18 0 -30 7
-8 17 -15 22 -15 6 0 5 7 -2 15 -9 11 -10 19 -1 28 6 8 9 23 6 36 -2 12 0 19
5 16 5 -3 11 -1 15 5 3 5 1 10 -5 10 -6 0 -8 5 -5 11 8 13 16 7 19 -16 1 -9
15 -22 30 -30 25 -13 27 -13 22 0 -3 8 0 17 6 21 7 5 8 2 3 -7 -7 -11 -6 -12
6 -2 9 8 20 9 29 3 13 -9 13 -10 0 -11 -8 -1 -19 -1 -24 0 -5 1 -6 -5 -2 -14
3 -9 6 -19 6 -21 0 -2 5 -4 10 -4 6 0 9 6 8 13 -2 6 5 11 15 10 12 0 16 4 13
13 -3 8 5 21 19 30 20 13 33 18 65 23 2 1 -1 6 -8 13 -9 9 -16 7 -32 -7 -11
-10 -20 -14 -20 -9 0 5 -6 2 -13 -7 -9 -12 -26 -16 -58 -15 -50 3 -69 11 -68
29 0 9 2 9 6 0 2 -7 9 -13 15 -13 6 0 6 6 -2 15 -17 21 -25 19 -49 -11z"/>
<path d="M3085 330 c-4 -6 -10 -8 -15 -5 -9 6 -5 -49 5 -65 9 -15 34 0 28 17
-5 12 -7 12 -15 1 -6 -9 -7 -5 -3 11 5 17 4 22 -5 16 -9 -6 -11 -4 -5 5 6 10
11 9 21 -6 7 -10 18 -25 24 -31 8 -9 8 -13 0 -13 -6 0 -8 -5 -4 -11 4 -8 9 -8
17 0 7 7 6 16 -6 29 -13 14 -14 21 -4 31 9 9 9 14 -3 21 -19 12 -27 12 -35 0z
m30 -10 c3 -6 -1 -7 -9 -4 -18 7 -21 14 -7 14 6 0 13 -4 16 -10z"/>
<path d="M1896 322 c-4 -7 -5 -12 -2 -12 2 0 11 -3 20 -6 9 -3 16 -1 16 6 0 6
-4 9 -9 6 -5 -4 -11 -1 -13 6 -3 9 -6 9 -12 0z"/>
<path d="M1945 320 c-10 -16 17 -23 31 -8 12 12 11 14 -6 15 -11 1 -22 -2 -25
-7z"/>
<path d="M2310 320 c0 -5 5 -10 10 -10 6 0 10 -5 10 -11 0 -5 -4 -7 -10 -4 -5
3 -10 -3 -10 -14 0 -10 6 -22 13 -24 9 -4 9 -6 -1 -6 -7 -1 -10 -6 -7 -12 5
-7 14 -4 26 7 22 20 38 12 19 -11 -10 -12 -10 -18 0 -30 7 -8 17 -15 22 -15 6
0 5 7 -2 15 -9 11 -10 19 -1 28 6 8 9 23 6 36 -2 12 0 19 5 16 5 -3 11 -1 15
5 3 5 1 10 -5 10 -6 0 -8 6 -5 13 4 6 -1 3 -9 -7 -9 -11 -16 -23 -16 -27 0
-10 -30 -20 -41 -13 -6 4 -6 11 1 19 6 7 8 20 4 29 -7 18 -24 22 -24 6z"/>
<path d="M2223 290 c-23 -13 -33 -16 -37 -7 -3 9 -5 8 -5 -1 -1 -10 -6 -10
-22 -2 -15 9 -24 8 -35 -1 -11 -9 -14 -9 -14 2 0 8 -6 5 -14 -6 -9 -13 -26
-20 -48 -20 -33 0 -51 -16 -27 -24 8 -2 9 1 3 10 -6 11 -3 10 11 -1 15 -12 17
-12 10 -1 -5 9 -4 12 3 7 6 -4 9 -13 6 -21 -5 -12 -1 -12 19 -2 14 6 25 14 25
17 -2 20 4 30 12 25 6 -4 19 -1 28 7 15 11 16 11 4 -3 -11 -15 -10 -17 13 -15
14 0 25 4 25 8 0 4 6 5 13 2 8 -3 20 2 27 11 14 17 30 20 30 5 0 -5 -5 -9 -11
-7 -6 1 -13 -3 -16 -9 -2 -7 4 -11 14 -10 12 0 17 -5 17 -17 -1 -10 3 -16 10
-14 6 3 9 11 7 18 -1 8 -4 24 -6 37 -3 32 -7 34 -42 12z"/>
<path d="M2270 302 c0 -6 5 -14 11 -18 8 -4 7 -9 -2 -15 -9 -6 -10 -9 -2 -9
14 0 11 -26 -4 -41 -14 -14 -34 -3 -27 15 4 10 -12 13 -68 13 -64 0 -74 -3
-75 -18 -1 -12 3 -16 13 -12 7 3 11 10 7 16 -3 6 -1 7 5 3 6 -4 9 -13 6 -21
-4 -8 -10 -12 -15 -9 -5 3 -9 1 -9 -4 0 -6 7 -13 16 -16 20 -8 24 -8 23 2 -3
19 2 33 11 27 6 -3 10 -2 10 4 0 5 -6 11 -12 14 -7 3 -3 4 8 4 14 -1 20 -6 17
-14 -4 -9 0 -11 11 -7 9 3 16 1 16 -6 0 -6 -4 -8 -10 -5 -5 3 -10 2 -10 -3 0
-8 22 -22 35 -22 2 0 2 11 0 25 -1 14 2 28 8 32 6 3 7 2 4 -4 -8 -13 38 -57
51 -49 14 9 24 -23 12 -42 -5 -10 -10 -12 -10 -7 0 6 -9 11 -20 12 -11 1 -18
-2 -15 -7 3 -4 -3 -7 -12 -6 -10 2 -24 14 -30 27 -7 13 -13 21 -14 17 -5 -25
-4 -34 5 -40 5 -3 -2 -5 -17 -5 -14 1 -24 4 -22 6 5 4 -21 31 -29 31 -3 0 -5
-6 -3 -12 1 -7 -5 -13 -13 -13 -8 0 -18 -4 -22 -10 -5 -6 -8 -6 -8 1 0 6 -7
11 -15 11 -8 0 -15 -3 -15 -7 0 -3 -9 -6 -20 -6 -11 0 -20 4 -20 9 0 5 -6 4
-14 -2 -11 -10 -17 -8 -29 9 -12 17 -16 18 -20 6 -3 -8 -1 -16 5 -18 6 -2 -8
-4 -31 -4 -29 0 -37 2 -27 8 9 5 16 14 16 20 0 7 -4 7 -13 -1 -10 -8 -14 -7
-14 4 0 8 4 12 8 9 4 -2 7 5 6 16 -1 11 -6 20 -11 20 -5 0 -2 6 9 13 12 10 14
16 7 21 -7 4 -12 2 -12 -4 0 -6 -4 -9 -8 -6 -4 2 -8 -21 -7 -52 l0 -57 636 0
635 -1 0 68 c0 49 -3 64 -12 57 -12 -10 -17 -62 -5 -55 4 3 7 -4 7 -14 0 -10
-7 -17 -16 -15 -8 1 -20 -7 -27 -19 -7 -11 -12 -16 -13 -11 0 6 -9 11 -20 12
-11 1 -18 -2 -15 -7 3 -4 -3 -7 -12 -6 -10 2 -24 14 -30 27 -7 13 -13 21 -14
17 -5 -25 -4 -34 5 -40 5 -3 -2 -5 -17 -5 -14 1 -24 4 -22 6 5 4 -21 31 -29
31 -3 0 -5 -6 -4 -12 2 -7 -4 -13 -12 -13 -8 0 -18 -4 -22 -10 -5 -6 -8 -6 -8
1 0 6 -7 11 -15 11 -8 0 -15 -3 -15 -7 0 -3 -9 -6 -20 -6 -11 0 -20 4 -20 9 0
5 -6 4 -14 -2 -11 -10 -17 -8 -29 9 -12 17 -16 18 -20 6 -3 -8 -1 -16 6 -19 7
-2 -3 -4 -20 -4 -18 0 -33 4 -33 9 0 4 -10 3 -21 -4 -18 -11 -23 -11 -26 0 -4
10 -8 10 -21 0 -15 -11 -15 -11 -5 2 10 13 8 22 -7 45 -11 17 -20 24 -20 17 0
-7 -5 -10 -11 -6 -18 11 12 24 32 14 9 -5 19 -7 22 -3 3 3 4 -6 1 -20 -2 -14
0 -29 6 -32 5 -3 10 1 10 9 0 21 9 20 33 -1 17 -15 20 -16 15 -2 -5 13 1 15
29 13 27 -1 33 1 29 13 -3 8 -6 17 -6 19 0 2 -5 4 -11 4 -5 0 -7 -4 -4 -10 3
-5 1 -10 -5 -10 -7 0 -9 7 -6 16 4 12 1 14 -14 9 -12 -4 -20 -2 -20 5 0 6 4 9
8 6 4 -2 14 -1 21 3 10 7 11 13 2 30 -7 12 -17 19 -22 15 -6 -3 -3 -12 8 -21
10 -8 13 -12 7 -9 -7 3 -18 -1 -25 -10 -11 -14 -11 -18 4 -29 15 -11 16 -13 2
-19 -35 -13 -65 24 -43 53 11 13 10 13 -7 -1 -22 -18 -53 -9 -41 11 4 6 3 11
-3 11 -6 0 -8 6 -5 13 3 8 -2 20 -11 27 -9 8 -15 8 -15 2 0 -6 5 -14 11 -18 8
-4 7 -9 -2 -15 -9 -6 -10 -9 -2 -9 12 0 12 -25 -1 -37 -4 -4 -17 -8 -29 -8
-11 0 -22 -7 -25 -15 -4 -12 -3 -13 10 -2 13 10 18 9 28 -3 7 -9 19 -14 26
-11 17 6 26 -22 14 -42 -5 -10 -10 -12 -10 -7 0 6 -9 11 -20 12 -12 1 -18 -3
-14 -9 4 -6 -1 -6 -14 1 -25 13 -35 14 -28 2 10 -16 -28 -6 -47 12 -10 10 -22
16 -25 12 -4 -4 2 -13 12 -21 11 -8 15 -14 8 -14 -6 0 -17 9 -25 20 -12 17
-16 18 -20 6 -3 -8 -1 -16 6 -19 7 -2 -3 -4 -20 -4 -18 0 -33 4 -33 9 0 4 -10
3 -21 -4 -18 -11 -23 -11 -26 0 -4 10 -8 10 -21 0 -15 -11 -15 -11 -5 2 10 13
8 22 -7 45 -11 17 -20 24 -20 17 0 -7 -5 -10 -11 -6 -18 11 12 24 32 14 9 -5
19 -7 22 -3 3 3 4 -6 1 -20 -2 -14 0 -29 6 -32 5 -3 10 1 10 9 0 21 9 20 33
-1 17 -15 20 -16 15 -2 -5 13 1 15 29 13 27 -1 33 1 29 13 -3 8 -6 17 -6 19 0
2 -5 4 -11 4 -5 0 -7 -4 -4 -10 3 -5 1 -10 -5 -10 -7 0 -9 7 -6 16 4 12 1 14
-14 9 -12 -4 -20 -2 -20 5 0 6 4 9 8 6 4 -2 14 -1 21 3 10 7 11 13 2 30 -7 12
-17 19 -22 15 -6 -3 -3 -12 8 -21 10 -8 13 -12 7 -9 -7 3 -18 -1 -25 -10 -11
-14 -11 -18 4 -29 15 -11 16 -13 2 -19 -35 -13 -65 24 -43 53 11 13 10 13 -7
-1 -22 -18 -53 -9 -41 11 4 6 3 11 -3 11 -6 0 -8 6 -5 13 3 8 -2 20 -11 27 -9
8 -15 8 -15 2z m870 -162 c-8 -5 -19 -10 -25 -10 -5 0 -3 5 5 10 8 5 20 10 25
10 6 0 3 -5 -5 -10z"/>
<path d="M2891 296 c-14 -8 -25 -22 -26 -32 -2 -11 -6 -27 -10 -36 -6 -16 -5
-16 24 -2 19 9 28 20 24 29 -3 8 -9 13 -13 10 -5 -3 -12 0 -16 6 -4 8 -3 9 4
5 7 -4 12 -1 12 6 0 10 2 10 9 -1 7 -11 10 -11 15 0 3 8 4 5 1 -7 -4 -14 0
-21 10 -21 11 0 13 6 9 21 -10 32 -17 36 -43 22z"/>
<path d="M2950 295 c-6 -8 -9 -19 -5 -25 7 -12 25 -4 25 11 0 6 -5 7 -12 3 -7
-5 -8 -3 -3 6 6 10 11 9 21 -4 9 -13 13 -14 18 -4 3 7 4 4 1 -7 -4 -15 0 -21
14 -22 17 -1 18 1 6 25 -16 30 -47 38 -65 17z"/>
<path d="M1896 289 c3 -5 0 -17 -8 -26 -11 -14 -11 -16 3 -11 23 9 45 -7 32
-24 -6 -7 -8 -22 -6 -33 3 -11 5 -27 6 -36 1 -9 7 -14 14 -12 9 4 10 9 3 17
-7 9 -4 12 10 11 11 -1 26 -10 34 -20 9 -12 15 -14 20 -7 4 7 2 12 -5 12 -7 0
-9 3 -6 6 4 4 12 2 20 -4 18 -15 86 -10 92 6 7 18 -13 54 -28 49 -6 -2 -13
-10 -16 -18 -4 -12 -1 -12 15 1 18 14 18 14 4 -4 -14 -18 -13 -19 3 -13 10 4
16 3 13 -2 -3 -5 -14 -11 -25 -14 -14 -3 -18 -1 -14 9 4 10 0 12 -11 8 -9 -3
-13 -11 -9 -17 3 -6 1 -7 -5 -3 -6 4 -9 13 -6 21 4 8 10 12 15 9 5 -3 9 0 9 5
0 6 -5 11 -11 11 -5 0 -7 5 -3 12 4 7 3 8 -5 4 -6 -4 -19 -2 -27 5 -23 19 -51
21 -51 4 0 -10 7 -13 17 -10 9 3 24 -1 34 -8 18 -13 18 -14 0 -31 -17 -18 -18
-18 -28 3 -5 11 -13 21 -18 21 -5 0 -6 -4 -3 -10 3 -5 1 -10 -5 -10 -7 0 -10
7 -6 15 3 8 0 15 -7 15 -9 0 -8 3 1 9 18 11 15 24 -10 37 -18 10 -18 12 -4 17
11 4 15 3 10 -4 -4 -8 1 -9 17 -4 16 4 20 3 11 -3 -11 -8 -11 -10 1 -15 17 -6
32 19 16 28 -17 11 -90 14 -83 4z"/>
<path d="M1999 300 c0 -3 -3 -16 -5 -30 -4 -24 -4 -24 13 -8 13 14 15 21 5 30
-7 7 -12 10 -13 8z"/>
<path d="M3024 289 c-10 -17 13 -36 27 -22 12 12 4 33 -11 33 -5 0 -12 -5 -16
-11z"/>
<path d="M2070 280 c0 -5 5 -10 11 -10 5 0 7 5 4 10 -3 6 -8 10 -11 10 -2 0
-4 -4 -4 -10z"/>
<path d="M2963 259 c-6 -6 -17 -11 -24 -12 -20 -3 -39 -17 -39 -27 0 -5 7 -7
15 -4 8 4 12 11 8 17 -3 6 -1 7 5 3 6 -4 9 -13 6 -21 -4 -8 -10 -12 -15 -9 -5
3 -9 0 -9 -5 0 -6 5 -11 12 -11 9 0 9 -3 0 -12 -15 -15 -15 -28 -1 -28 5 0 8
4 4 9 -3 6 3 14 12 20 10 5 17 12 16 15 -7 14 -2 27 7 21 6 -3 10 -1 10 4 0 6
-6 11 -12 11 -9 0 -8 3 2 9 18 12 31 5 23 -14 -4 -11 -1 -13 11 -9 10 4 16 1
16 -7 0 -7 -3 -9 -7 -5 -4 3 -13 -4 -20 -16 l-14 -23 6 22 c5 17 3 22 -8 17
-16 -6 -17 -20 -4 -41 9 -14 28 -18 26 -5 -4 24 3 33 20 27 15 -4 18 -1 17 21
-1 19 5 29 22 35 16 6 21 5 16 -3 -4 -6 -3 -9 2 -5 13 8 39 -15 40 -35 2 -25
-5 -22 -15 5 -6 14 -18 23 -35 25 -25 2 -25 1 -8 -16 11 -12 20 -15 25 -8 5 7
6 2 2 -9 -11 -34 -11 -37 8 -40 9 -2 15 1 11 6 -3 5 -10 6 -16 3 -6 -4 -8 -3
-5 3 4 6 18 9 32 8 27 -3 32 4 13 23 -9 9 -9 12 3 12 11 0 11 2 1 9 -8 4 -13
12 -13 17 0 5 -5 9 -12 9 -6 0 -18 4 -24 8 -7 4 -21 3 -31 -2 -22 -12 -51 -9
-61 7 -5 8 -10 9 -18 1z"/>
<path d="M2434 240 c0 -11 8 -23 18 -26 10 -3 16 -10 13 -15 -7 -10 8 -12 19
-2 3 4 -4 13 -16 20 -13 7 -18 12 -12 13 5 0 18 -6 28 -13 16 -12 17 -15 3
-29 -14 -14 -13 -17 9 -29 22 -11 27 -11 34 1 13 20 12 26 -5 44 -9 9 -11 17
-5 21 13 8 13 25 -1 25 -5 0 -8 -4 -4 -9 11 -19 -18 -24 -32 -6 -7 11 -13 15
-13 10 0 -5 -5 -4 -12 3 -17 17 -24 15 -24 -8z m88 -58 c-7 -2 -9 -9 -6 -14 4
-7 2 -8 -4 -4 -6 4 -9 13 -6 21 4 8 11 12 17 8 8 -5 7 -8 -1 -11z"/>
<path d="M2754 240 c0 -11 8 -23 18 -26 10 -3 16 -10 13 -15 -7 -10 8 -12 19
-2 3 4 -4 13 -16 20 -13 7 -18 12 -12 13 5 0 18 -6 28 -13 18 -13 18 -15 -4
-35 -21 -20 -20 -49 2 -36 6 4 5 10 -3 15 -10 6 -10 9 -2 9 6 0 15 -4 18 -10
9 -14 84 -7 90 8 7 18 -13 54 -28 49 -6 -2 -13 -10 -16 -18 -4 -12 -1 -12 15
1 18 14 18 14 4 -4 -14 -18 -13 -19 3 -13 10 4 16 3 13 -2 -3 -5 -14 -11 -25
-14 -14 -3 -18 -1 -14 9 4 10 0 12 -11 8 -9 -3 -13 -11 -9 -17 3 -6 1 -7 -5
-3 -6 4 -9 13 -6 21 4 8 10 12 15 9 5 -3 9 0 9 5 0 6 -5 11 -12 11 -9 0 -9 3
0 12 15 15 15 28 1 28 -5 0 -8 -4 -4 -9 11 -19 -18 -24 -32 -6 -7 11 -13 15
-13 10 0 -5 -5 -4 -12 3 -17 17 -24 15 -24 -8z"/>
<path d="M1978 213 c6 -2 10 -9 6 -14 -3 -5 -1 -9 5 -9 17 0 21 18 5 24 -9 3
-19 6 -22 5 -4 0 -1 -3 6 -6z"/>
<path d="M2164 202 c-11 -8 -12 -22 -1 -39 14 -21 25 -15 22 12 -3 31 -7 36
-21 27z"/>
<path d="M3036 201 c-4 -6 -2 -11 5 -11 7 0 4 -6 -7 -14 -14 -11 -16 -17 -7
-26 8 -9 14 -7 22 9 13 23 0 63 -13 42z"/>
<path d="M2233 193 c4 -3 2 -12 -4 -19 -6 -7 -7 -19 -3 -25 5 -9 11 -7 21 7 8
11 17 15 21 9 10 -14 32 -17 32 -5 0 6 -6 10 -14 10 -7 0 -19 7 -26 15 -7 8
-17 15 -23 15 -6 0 -7 -3 -4 -7z"/>
<path d="M2556 191 c-4 -5 3 -12 14 -16 11 -3 20 -10 20 -14 0 -4 7 -8 15 -8
8 0 15 4 15 9 0 4 -5 8 -12 8 -6 0 -19 7 -29 16 -10 9 -19 11 -23 5z"/>
<path d="M2117 173 c-10 -9 -9 -23 1 -23 5 0 9 7 9 15 0 17 -1 18 -10 8z"/>
<path d="M2356 155 c-3 -8 -1 -15 4 -15 13 0 22 18 11 24 -5 3 -11 -1 -15 -9z"/>
<path d="M2407 156 c-4 -10 -1 -13 8 -9 8 3 12 9 9 14 -7 12 -11 11 -17 -5z"/>
<path d="M2545 160 c3 -5 10 -10 16 -10 5 0 9 5 9 10 0 6 -7 10 -16 10 -8 0
-12 -4 -9 -10z"/>
<path d="M2676 155 c-3 -8 -1 -15 4 -15 13 0 22 18 11 24 -5 3 -11 -1 -15 -9z"/>
<path d="M2727 156 c-4 -10 -1 -13 8 -9 8 3 12 9 9 14 -7 12 -11 11 -17 -5z"/>
</g>
</svg>
